<?xml version="1.0" encoding="UTF-8"?>
<svg xmlns="http://www.w3.org/2000/svg" viewBox="0 0 470 110" width="470" height="110">
<rect width="470" height="110" fill="#FFFFFF"/>
<rect x="20" y="20" width="10" height="10" fill="#000000"/>
<rect x="30" y="20" width="10" height="10" fill="#000000"/>
<rect x="40" y="20" width="10" height="10" fill="#000000"/>
<rect x="50" y="20" width="10" height="10" fill="#000000"/>
<rect x="60" y="20" width="10" height="10" fill="#000000"/>
<rect x="70" y="20" width="10" height="10" fill="#000000"/>
<rect x="80" y="20" width="10" height="10" fill="#000000"/>
<rect x="100" y="20" width="10" height="10" fill="#000000"/>
<rect x="120" y="20" width="10" height="10" fill="#000000"/>
<rect x="140" y="20" width="10" height="10" fill="#000000"/>
<rect x="160" y="20" width="10" height="10" fill="#000000"/>
<rect x="180" y="20" width="10" height="10" fill="#000000"/>
<rect x="200" y="20" width="10" height="10" fill="#000000"/>
<rect x="220" y="20" width="10" height="10" fill="#000000"/>
<rect x="230" y="20" width="10" height="10" fill="#000000"/>
<rect x="240" y="20" width="10" height="10" fill="#000000"/>
<rect x="260" y="20" width="10" height="10" fill="#000000"/>
<rect x="280" y="20" width="10" height="10" fill="#000000"/>
<rect x="300" y="20" width="10" height="10" fill="#000000"/>
<rect x="320" y="20" width="10" height="10" fill="#000000"/>
<rect x="340" y="20" width="10" height="10" fill="#000000"/>
<rect x="360" y="20" width="10" height="10" fill="#000000"/>
<rect x="380" y="20" width="10" height="10" fill="#000000"/>
<rect x="400" y="20" width="10" height="10" fill="#000000"/>
<rect x="420" y="20" width="10" height="10" fill="#000000"/>
<rect x="430" y="20" width="10" height="10" fill="#000000"/>
<rect x="440" y="20" width="10" height="10" fill="#000000"/>
<rect x="20" y="30" width="10" height="10" fill="#000000"/>
<rect x="80" y="30" width="10" height="10" fill="#000000"/>
<rect x="110" y="30" width="10" height="10" fill="#000000"/>
<rect x="130" y="30" width="10" height="10" fill="#000000"/>
<rect x="150" y="30" width="10" height="10" fill="#000000"/>
<rect x="160" y="30" width="10" height="10" fill="#000000"/>
<rect x="190" y="30" width="10" height="10" fill="#000000"/>
<rect x="210" y="30" width="10" height="10" fill="#000000"/>
<rect x="220" y="30" width="10" height="10" fill="#000000"/>
<rect x="240" y="30" width="10" height="10" fill="#000000"/>
<rect x="280" y="30" width="10" height="10" fill="#000000"/>
<rect x="290" y="30" width="10" height="10" fill="#000000"/>
<rect x="300" y="30" width="10" height="10" fill="#000000"/>
<rect x="340" y="30" width="10" height="10" fill="#000000"/>
<rect x="370" y="30" width="10" height="10" fill="#000000"/>
<rect x="380" y="30" width="10" height="10" fill="#000000"/>
<rect x="420" y="30" width="10" height="10" fill="#000000"/>
<rect x="440" y="30" width="10" height="10" fill="#000000"/>
<rect x="20" y="40" width="10" height="10" fill="#000000"/>
<rect x="40" y="40" width="10" height="10" fill="#000000"/>
<rect x="50" y="40" width="10" height="10" fill="#000000"/>
<rect x="60" y="40" width="10" height="10" fill="#000000"/>
<rect x="80" y="40" width="10" height="10" fill="#000000"/>
<rect x="100" y="40" width="10" height="10" fill="#000000"/>
<rect x="120" y="40" width="10" height="10" fill="#000000"/>
<rect x="130" y="40" width="10" height="10" fill="#000000"/>
<rect x="160" y="40" width="10" height="10" fill="#000000"/>
<rect x="170" y="40" width="10" height="10" fill="#000000"/>
<rect x="180" y="40" width="10" height="10" fill="#000000"/>
<rect x="190" y="40" width="10" height="10" fill="#000000"/>
<rect x="220" y="40" width="10" height="10" fill="#000000"/>
<rect x="230" y="40" width="10" height="10" fill="#000000"/>
<rect x="240" y="40" width="10" height="10" fill="#000000"/>
<rect x="250" y="40" width="10" height="10" fill="#000000"/>
<rect x="290" y="40" width="10" height="10" fill="#000000"/>
<rect x="350" y="40" width="10" height="10" fill="#000000"/>
<rect x="370" y="40" width="10" height="10" fill="#000000"/>
<rect x="380" y="40" width="10" height="10" fill="#000000"/>
<rect x="390" y="40" width="10" height="10" fill="#000000"/>
<rect x="400" y="40" width="10" height="10" fill="#000000"/>
<rect x="410" y="40" width="10" height="10" fill="#000000"/>
<rect x="420" y="40" width="10" height="10" fill="#000000"/>
<rect x="430" y="40" width="10" height="10" fill="#000000"/>
<rect x="440" y="40" width="10" height="10" fill="#000000"/>
<rect x="20" y="50" width="10" height="10" fill="#000000"/>
<rect x="40" y="50" width="10" height="10" fill="#000000"/>
<rect x="50" y="50" width="10" height="10" fill="#000000"/>
<rect x="60" y="50" width="10" height="10" fill="#000000"/>
<rect x="80" y="50" width="10" height="10" fill="#000000"/>
<rect x="110" y="50" width="10" height="10" fill="#000000"/>
<rect x="120" y="50" width="10" height="10" fill="#000000"/>
<rect x="140" y="50" width="10" height="10" fill="#000000"/>
<rect x="150" y="50" width="10" height="10" fill="#000000"/>
<rect x="160" y="50" width="10" height="10" fill="#000000"/>
<rect x="180" y="50" width="10" height="10" fill="#000000"/>
<rect x="210" y="50" width="10" height="10" fill="#000000"/>
<rect x="220" y="50" width="10" height="10" fill="#000000"/>
<rect x="240" y="50" width="10" height="10" fill="#000000"/>
<rect x="250" y="50" width="10" height="10" fill="#000000"/>
<rect x="270" y="50" width="10" height="10" fill="#000000"/>
<rect x="280" y="50" width="10" height="10" fill="#000000"/>
<rect x="300" y="50" width="10" height="10" fill="#000000"/>
<rect x="310" y="50" width="10" height="10" fill="#000000"/>
<rect x="330" y="50" width="10" height="10" fill="#000000"/>
<rect x="340" y="50" width="10" height="10" fill="#000000"/>
<rect x="350" y="50" width="10" height="10" fill="#000000"/>
<rect x="400" y="50" width="10" height="10" fill="#000000"/>
<rect x="440" y="50" width="10" height="10" fill="#000000"/>
<rect x="20" y="60" width="10" height="10" fill="#000000"/>
<rect x="40" y="60" width="10" height="10" fill="#000000"/>
<rect x="50" y="60" width="10" height="10" fill="#000000"/>
<rect x="60" y="60" width="10" height="10" fill="#000000"/>
<rect x="80" y="60" width="10" height="10" fill="#000000"/>
<rect x="120" y="60" width="10" height="10" fill="#000000"/>
<rect x="130" y="60" width="10" height="10" fill="#000000"/>
<rect x="160" y="60" width="10" height="10" fill="#000000"/>
<rect x="170" y="60" width="10" height="10" fill="#000000"/>
<rect x="180" y="60" width="10" height="10" fill="#000000"/>
<rect x="190" y="60" width="10" height="10" fill="#000000"/>
<rect x="210" y="60" width="10" height="10" fill="#000000"/>
<rect x="220" y="60" width="10" height="10" fill="#000000"/>
<rect x="230" y="60" width="10" height="10" fill="#000000"/>
<rect x="240" y="60" width="10" height="10" fill="#000000"/>
<rect x="250" y="60" width="10" height="10" fill="#000000"/>
<rect x="270" y="60" width="10" height="10" fill="#000000"/>
<rect x="310" y="60" width="10" height="10" fill="#000000"/>
<rect x="320" y="60" width="10" height="10" fill="#000000"/>
<rect x="340" y="60" width="10" height="10" fill="#000000"/>
<rect x="350" y="60" width="10" height="10" fill="#000000"/>
<rect x="360" y="60" width="10" height="10" fill="#000000"/>
<rect x="370" y="60" width="10" height="10" fill="#000000"/>
<rect x="400" y="60" width="10" height="10" fill="#000000"/>
<rect x="420" y="60" width="10" height="10" fill="#000000"/>
<rect x="440" y="60" width="10" height="10" fill="#000000"/>
<rect x="20" y="70" width="10" height="10" fill="#000000"/>
<rect x="80" y="70" width="10" height="10" fill="#000000"/>
<rect x="100" y="70" width="10" height="10" fill="#000000"/>
<rect x="110" y="70" width="10" height="10" fill="#000000"/>
<rect x="120" y="70" width="10" height="10" fill="#000000"/>
<rect x="130" y="70" width="10" height="10" fill="#000000"/>
<rect x="140" y="70" width="10" height="10" fill="#000000"/>
<rect x="150" y="70" width="10" height="10" fill="#000000"/>
<rect x="170" y="70" width="10" height="10" fill="#000000"/>
<rect x="180" y="70" width="10" height="10" fill="#000000"/>
<rect x="210" y="70" width="10" height="10" fill="#000000"/>
<rect x="220" y="70" width="10" height="10" fill="#000000"/>
<rect x="240" y="70" width="10" height="10" fill="#000000"/>
<rect x="260" y="70" width="10" height="10" fill="#000000"/>
<rect x="290" y="70" width="10" height="10" fill="#000000"/>
<rect x="300" y="70" width="10" height="10" fill="#000000"/>
<rect x="340" y="70" width="10" height="10" fill="#000000"/>
<rect x="350" y="70" width="10" height="10" fill="#000000"/>
<rect x="370" y="70" width="10" height="10" fill="#000000"/>
<rect x="380" y="70" width="10" height="10" fill="#000000"/>
<rect x="400" y="70" width="10" height="10" fill="#000000"/>
<rect x="440" y="70" width="10" height="10" fill="#000000"/>
<rect x="20" y="80" width="10" height="10" fill="#000000"/>
<rect x="30" y="80" width="10" height="10" fill="#000000"/>
<rect x="40" y="80" width="10" height="10" fill="#000000"/>
<rect x="50" y="80" width="10" height="10" fill="#000000"/>
<rect x="60" y="80" width="10" height="10" fill="#000000"/>
<rect x="70" y="80" width="10" height="10" fill="#000000"/>
<rect x="80" y="80" width="10" height="10" fill="#000000"/>
<rect x="100" y="80" width="10" height="10" fill="#000000"/>
<rect x="120" y="80" width="10" height="10" fill="#000000"/>
<rect x="140" y="80" width="10" height="10" fill="#000000"/>
<rect x="160" y="80" width="10" height="10" fill="#000000"/>
<rect x="180" y="80" width="10" height="10" fill="#000000"/>
<rect x="200" y="80" width="10" height="10" fill="#000000"/>
<rect x="220" y="80" width="10" height="10" fill="#000000"/>
<rect x="230" y="80" width="10" height="10" fill="#000000"/>
<rect x="240" y="80" width="10" height="10" fill="#000000"/>
<rect x="260" y="80" width="10" height="10" fill="#000000"/>
<rect x="280" y="80" width="10" height="10" fill="#000000"/>
<rect x="300" y="80" width="10" height="10" fill="#000000"/>
<rect x="320" y="80" width="10" height="10" fill="#000000"/>
<rect x="340" y="80" width="10" height="10" fill="#000000"/>
<rect x="360" y="80" width="10" height="10" fill="#000000"/>
<rect x="380" y="80" width="10" height="10" fill="#000000"/>
<rect x="400" y="80" width="10" height="10" fill="#000000"/>
<rect x="410" y="80" width="10" height="10" fill="#000000"/>
<rect x="420" y="80" width="10" height="10" fill="#000000"/>
<rect x="430" y="80" width="10" height="10" fill="#000000"/>
<rect x="440" y="80" width="10" height="10" fill="#000000"/>
</svg>