<?xml version="1.0" encoding="UTF-8"?>
<svg xmlns="http://www.w3.org/2000/svg" viewBox="0 0 300 300" width="300" height="300">
<rect width="300" height="300" fill="#FFFFFF"/>
<rect x="20" y="20" width="10" height="10" fill="#000000"/>
<rect x="40" y="20" width="10" height="10" fill="#000000"/>
<rect x="60" y="20" width="10" height="10" fill="#000000"/>
<rect x="80" y="20" width="10" height="10" fill="#000000"/>
<rect x="100" y="20" width="10" height="10" fill="#000000"/>
<rect x="120" y="20" width="10" height="10" fill="#000000"/>
<rect x="140" y="20" width="10" height="10" fill="#000000"/>
<rect x="160" y="20" width="10" height="10" fill="#000000"/>
<rect x="180" y="20" width="10" height="10" fill="#000000"/>
<rect x="200" y="20" width="10" height="10" fill="#000000"/>
<rect x="220" y="20" width="10" height="10" fill="#000000"/>
<rect x="240" y="20" width="10" height="10" fill="#000000"/>
<rect x="260" y="20" width="10" height="10" fill="#000000"/>
<rect x="20" y="30" width="10" height="10" fill="#000000"/>
<rect x="40" y="30" width="10" height="10" fill="#000000"/>
<rect x="50" y="30" width="10" height="10" fill="#000000"/>
<rect x="70" y="30" width="10" height="10" fill="#000000"/>
<rect x="80" y="30" width="10" height="10" fill="#000000"/>
<rect x="100" y="30" width="10" height="10" fill="#000000"/>
<rect x="150" y="30" width="10" height="10" fill="#000000"/>
<rect x="170" y="30" width="10" height="10" fill="#000000"/>
<rect x="200" y="30" width="10" height="10" fill="#000000"/>
<rect x="220" y="30" width="10" height="10" fill="#000000"/>
<rect x="230" y="30" width="10" height="10" fill="#000000"/>
<rect x="240" y="30" width="10" height="10" fill="#000000"/>
<rect x="260" y="30" width="10" height="10" fill="#000000"/>
<rect x="270" y="30" width="10" height="10" fill="#000000"/>
<rect x="20" y="40" width="10" height="10" fill="#000000"/>
<rect x="30" y="40" width="10" height="10" fill="#000000"/>
<rect x="70" y="40" width="10" height="10" fill="#000000"/>
<rect x="80" y="40" width="10" height="10" fill="#000000"/>
<rect x="100" y="40" width="10" height="10" fill="#000000"/>
<rect x="110" y="40" width="10" height="10" fill="#000000"/>
<rect x="150" y="40" width="10" height="10" fill="#000000"/>
<rect x="160" y="40" width="10" height="10" fill="#000000"/>
<rect x="180" y="40" width="10" height="10" fill="#000000"/>
<rect x="190" y="40" width="10" height="10" fill="#000000"/>
<rect x="200" y="40" width="10" height="10" fill="#000000"/>
<rect x="230" y="40" width="10" height="10" fill="#000000"/>
<rect x="250" y="40" width="10" height="10" fill="#000000"/>
<rect x="20" y="50" width="10" height="10" fill="#000000"/>
<rect x="30" y="50" width="10" height="10" fill="#000000"/>
<rect x="40" y="50" width="10" height="10" fill="#000000"/>
<rect x="60" y="50" width="10" height="10" fill="#000000"/>
<rect x="70" y="50" width="10" height="10" fill="#000000"/>
<rect x="100" y="50" width="10" height="10" fill="#000000"/>
<rect x="120" y="50" width="10" height="10" fill="#000000"/>
<rect x="140" y="50" width="10" height="10" fill="#000000"/>
<rect x="160" y="50" width="10" height="10" fill="#000000"/>
<rect x="180" y="50" width="10" height="10" fill="#000000"/>
<rect x="190" y="50" width="10" height="10" fill="#000000"/>
<rect x="210" y="50" width="10" height="10" fill="#000000"/>
<rect x="220" y="50" width="10" height="10" fill="#000000"/>
<rect x="230" y="50" width="10" height="10" fill="#000000"/>
<rect x="240" y="50" width="10" height="10" fill="#000000"/>
<rect x="260" y="50" width="10" height="10" fill="#000000"/>
<rect x="270" y="50" width="10" height="10" fill="#000000"/>
<rect x="20" y="60" width="10" height="10" fill="#000000"/>
<rect x="30" y="60" width="10" height="10" fill="#000000"/>
<rect x="90" y="60" width="10" height="10" fill="#000000"/>
<rect x="130" y="60" width="10" height="10" fill="#000000"/>
<rect x="160" y="60" width="10" height="10" fill="#000000"/>
<rect x="170" y="60" width="10" height="10" fill="#000000"/>
<rect x="240" y="60" width="10" height="10" fill="#000000"/>
<rect x="20" y="70" width="10" height="10" fill="#000000"/>
<rect x="30" y="70" width="10" height="10" fill="#000000"/>
<rect x="40" y="70" width="10" height="10" fill="#000000"/>
<rect x="60" y="70" width="10" height="10" fill="#000000"/>
<rect x="80" y="70" width="10" height="10" fill="#000000"/>
<rect x="90" y="70" width="10" height="10" fill="#000000"/>
<rect x="110" y="70" width="10" height="10" fill="#000000"/>
<rect x="120" y="70" width="10" height="10" fill="#000000"/>
<rect x="140" y="70" width="10" height="10" fill="#000000"/>
<rect x="160" y="70" width="10" height="10" fill="#000000"/>
<rect x="180" y="70" width="10" height="10" fill="#000000"/>
<rect x="200" y="70" width="10" height="10" fill="#000000"/>
<rect x="270" y="70" width="10" height="10" fill="#000000"/>
<rect x="20" y="80" width="10" height="10" fill="#000000"/>
<rect x="40" y="80" width="10" height="10" fill="#000000"/>
<rect x="60" y="80" width="10" height="10" fill="#000000"/>
<rect x="70" y="80" width="10" height="10" fill="#000000"/>
<rect x="90" y="80" width="10" height="10" fill="#000000"/>
<rect x="110" y="80" width="10" height="10" fill="#000000"/>
<rect x="130" y="80" width="10" height="10" fill="#000000"/>
<rect x="170" y="80" width="10" height="10" fill="#000000"/>
<rect x="190" y="80" width="10" height="10" fill="#000000"/>
<rect x="220" y="80" width="10" height="10" fill="#000000"/>
<rect x="230" y="80" width="10" height="10" fill="#000000"/>
<rect x="240" y="80" width="10" height="10" fill="#000000"/>
<rect x="250" y="80" width="10" height="10" fill="#000000"/>
<rect x="20" y="90" width="10" height="10" fill="#000000"/>
<rect x="60" y="90" width="10" height="10" fill="#000000"/>
<rect x="70" y="90" width="10" height="10" fill="#000000"/>
<rect x="90" y="90" width="10" height="10" fill="#000000"/>
<rect x="100" y="90" width="10" height="10" fill="#000000"/>
<rect x="110" y="90" width="10" height="10" fill="#000000"/>
<rect x="150" y="90" width="10" height="10" fill="#000000"/>
<rect x="160" y="90" width="10" height="10" fill="#000000"/>
<rect x="180" y="90" width="10" height="10" fill="#000000"/>
<rect x="190" y="90" width="10" height="10" fill="#000000"/>
<rect x="220" y="90" width="10" height="10" fill="#000000"/>
<rect x="260" y="90" width="10" height="10" fill="#000000"/>
<rect x="270" y="90" width="10" height="10" fill="#000000"/>
<rect x="20" y="100" width="10" height="10" fill="#000000"/>
<rect x="40" y="100" width="10" height="10" fill="#000000"/>
<rect x="50" y="100" width="10" height="10" fill="#000000"/>
<rect x="60" y="100" width="10" height="10" fill="#000000"/>
<rect x="100" y="100" width="10" height="10" fill="#000000"/>
<rect x="130" y="100" width="10" height="10" fill="#000000"/>
<rect x="170" y="100" width="10" height="10" fill="#000000"/>
<rect x="180" y="100" width="10" height="10" fill="#000000"/>
<rect x="200" y="100" width="10" height="10" fill="#000000"/>
<rect x="210" y="100" width="10" height="10" fill="#000000"/>
<rect x="220" y="100" width="10" height="10" fill="#000000"/>
<rect x="230" y="100" width="10" height="10" fill="#000000"/>
<rect x="240" y="100" width="10" height="10" fill="#000000"/>
<rect x="20" y="110" width="10" height="10" fill="#000000"/>
<rect x="40" y="110" width="10" height="10" fill="#000000"/>
<rect x="60" y="110" width="10" height="10" fill="#000000"/>
<rect x="70" y="110" width="10" height="10" fill="#000000"/>
<rect x="80" y="110" width="10" height="10" fill="#000000"/>
<rect x="120" y="110" width="10" height="10" fill="#000000"/>
<rect x="150" y="110" width="10" height="10" fill="#000000"/>
<rect x="160" y="110" width="10" height="10" fill="#000000"/>
<rect x="200" y="110" width="10" height="10" fill="#000000"/>
<rect x="220" y="110" width="10" height="10" fill="#000000"/>
<rect x="230" y="110" width="10" height="10" fill="#000000"/>
<rect x="250" y="110" width="10" height="10" fill="#000000"/>
<rect x="270" y="110" width="10" height="10" fill="#000000"/>
<rect x="20" y="120" width="10" height="10" fill="#000000"/>
<rect x="30" y="120" width="10" height="10" fill="#000000"/>
<rect x="40" y="120" width="10" height="10" fill="#000000"/>
<rect x="70" y="120" width="10" height="10" fill="#000000"/>
<rect x="100" y="120" width="10" height="10" fill="#000000"/>
<rect x="110" y="120" width="10" height="10" fill="#000000"/>
<rect x="150" y="120" width="10" height="10" fill="#000000"/>
<rect x="160" y="120" width="10" height="10" fill="#000000"/>
<rect x="170" y="120" width="10" height="10" fill="#000000"/>
<rect x="190" y="120" width="10" height="10" fill="#000000"/>
<rect x="200" y="120" width="10" height="10" fill="#000000"/>
<rect x="220" y="120" width="10" height="10" fill="#000000"/>
<rect x="230" y="120" width="10" height="10" fill="#000000"/>
<rect x="240" y="120" width="10" height="10" fill="#000000"/>
<rect x="250" y="120" width="10" height="10" fill="#000000"/>
<rect x="260" y="120" width="10" height="10" fill="#000000"/>
<rect x="20" y="130" width="10" height="10" fill="#000000"/>
<rect x="60" y="130" width="10" height="10" fill="#000000"/>
<rect x="80" y="130" width="10" height="10" fill="#000000"/>
<rect x="100" y="130" width="10" height="10" fill="#000000"/>
<rect x="120" y="130" width="10" height="10" fill="#000000"/>
<rect x="140" y="130" width="10" height="10" fill="#000000"/>
<rect x="150" y="130" width="10" height="10" fill="#000000"/>
<rect x="170" y="130" width="10" height="10" fill="#000000"/>
<rect x="180" y="130" width="10" height="10" fill="#000000"/>
<rect x="190" y="130" width="10" height="10" fill="#000000"/>
<rect x="200" y="130" width="10" height="10" fill="#000000"/>
<rect x="210" y="130" width="10" height="10" fill="#000000"/>
<rect x="220" y="130" width="10" height="10" fill="#000000"/>
<rect x="240" y="130" width="10" height="10" fill="#000000"/>
<rect x="260" y="130" width="10" height="10" fill="#000000"/>
<rect x="270" y="130" width="10" height="10" fill="#000000"/>
<rect x="20" y="140" width="10" height="10" fill="#000000"/>
<rect x="30" y="140" width="10" height="10" fill="#000000"/>
<rect x="50" y="140" width="10" height="10" fill="#000000"/>
<rect x="70" y="140" width="10" height="10" fill="#000000"/>
<rect x="90" y="140" width="10" height="10" fill="#000000"/>
<rect x="100" y="140" width="10" height="10" fill="#000000"/>
<rect x="130" y="140" width="10" height="10" fill="#000000"/>
<rect x="140" y="140" width="10" height="10" fill="#000000"/>
<rect x="180" y="140" width="10" height="10" fill="#000000"/>
<rect x="190" y="140" width="10" height="10" fill="#000000"/>
<rect x="200" y="140" width="10" height="10" fill="#000000"/>
<rect x="220" y="140" width="10" height="10" fill="#000000"/>
<rect x="230" y="140" width="10" height="10" fill="#000000"/>
<rect x="240" y="140" width="10" height="10" fill="#000000"/>
<rect x="260" y="140" width="10" height="10" fill="#000000"/>
<rect x="20" y="150" width="10" height="10" fill="#000000"/>
<rect x="40" y="150" width="10" height="10" fill="#000000"/>
<rect x="50" y="150" width="10" height="10" fill="#000000"/>
<rect x="80" y="150" width="10" height="10" fill="#000000"/>
<rect x="90" y="150" width="10" height="10" fill="#000000"/>
<rect x="110" y="150" width="10" height="10" fill="#000000"/>
<rect x="120" y="150" width="10" height="10" fill="#000000"/>
<rect x="130" y="150" width="10" height="10" fill="#000000"/>
<rect x="150" y="150" width="10" height="10" fill="#000000"/>
<rect x="170" y="150" width="10" height="10" fill="#000000"/>
<rect x="210" y="150" width="10" height="10" fill="#000000"/>
<rect x="230" y="150" width="10" height="10" fill="#000000"/>
<rect x="270" y="150" width="10" height="10" fill="#000000"/>
<rect x="20" y="160" width="10" height="10" fill="#000000"/>
<rect x="40" y="160" width="10" height="10" fill="#000000"/>
<rect x="70" y="160" width="10" height="10" fill="#000000"/>
<rect x="120" y="160" width="10" height="10" fill="#000000"/>
<rect x="140" y="160" width="10" height="10" fill="#000000"/>
<rect x="150" y="160" width="10" height="10" fill="#000000"/>
<rect x="180" y="160" width="10" height="10" fill="#000000"/>
<rect x="200" y="160" width="10" height="10" fill="#000000"/>
<rect x="250" y="160" width="10" height="10" fill="#000000"/>
<rect x="20" y="170" width="10" height="10" fill="#000000"/>
<rect x="60" y="170" width="10" height="10" fill="#000000"/>
<rect x="80" y="170" width="10" height="10" fill="#000000"/>
<rect x="100" y="170" width="10" height="10" fill="#000000"/>
<rect x="120" y="170" width="10" height="10" fill="#000000"/>
<rect x="130" y="170" width="10" height="10" fill="#000000"/>
<rect x="150" y="170" width="10" height="10" fill="#000000"/>
<rect x="160" y="170" width="10" height="10" fill="#000000"/>
<rect x="170" y="170" width="10" height="10" fill="#000000"/>
<rect x="220" y="170" width="10" height="10" fill="#000000"/>
<rect x="240" y="170" width="10" height="10" fill="#000000"/>
<rect x="260" y="170" width="10" height="10" fill="#000000"/>
<rect x="270" y="170" width="10" height="10" fill="#000000"/>
<rect x="20" y="180" width="10" height="10" fill="#000000"/>
<rect x="40" y="180" width="10" height="10" fill="#000000"/>
<rect x="80" y="180" width="10" height="10" fill="#000000"/>
<rect x="100" y="180" width="10" height="10" fill="#000000"/>
<rect x="110" y="180" width="10" height="10" fill="#000000"/>
<rect x="120" y="180" width="10" height="10" fill="#000000"/>
<rect x="130" y="180" width="10" height="10" fill="#000000"/>
<rect x="160" y="180" width="10" height="10" fill="#000000"/>
<rect x="170" y="180" width="10" height="10" fill="#000000"/>
<rect x="180" y="180" width="10" height="10" fill="#000000"/>
<rect x="220" y="180" width="10" height="10" fill="#000000"/>
<rect x="20" y="190" width="10" height="10" fill="#000000"/>
<rect x="50" y="190" width="10" height="10" fill="#000000"/>
<rect x="70" y="190" width="10" height="10" fill="#000000"/>
<rect x="120" y="190" width="10" height="10" fill="#000000"/>
<rect x="140" y="190" width="10" height="10" fill="#000000"/>
<rect x="180" y="190" width="10" height="10" fill="#000000"/>
<rect x="240" y="190" width="10" height="10" fill="#000000"/>
<rect x="250" y="190" width="10" height="10" fill="#000000"/>
<rect x="270" y="190" width="10" height="10" fill="#000000"/>
<rect x="20" y="200" width="10" height="10" fill="#000000"/>
<rect x="30" y="200" width="10" height="10" fill="#000000"/>
<rect x="60" y="200" width="10" height="10" fill="#000000"/>
<rect x="70" y="200" width="10" height="10" fill="#000000"/>
<rect x="100" y="200" width="10" height="10" fill="#000000"/>
<rect x="130" y="200" width="10" height="10" fill="#000000"/>
<rect x="150" y="200" width="10" height="10" fill="#000000"/>
<rect x="160" y="200" width="10" height="10" fill="#000000"/>
<rect x="190" y="200" width="10" height="10" fill="#000000"/>
<rect x="240" y="200" width="10" height="10" fill="#000000"/>
<rect x="260" y="200" width="10" height="10" fill="#000000"/>
<rect x="20" y="210" width="10" height="10" fill="#000000"/>
<rect x="50" y="210" width="10" height="10" fill="#000000"/>
<rect x="70" y="210" width="10" height="10" fill="#000000"/>
<rect x="90" y="210" width="10" height="10" fill="#000000"/>
<rect x="100" y="210" width="10" height="10" fill="#000000"/>
<rect x="130" y="210" width="10" height="10" fill="#000000"/>
<rect x="140" y="210" width="10" height="10" fill="#000000"/>
<rect x="160" y="210" width="10" height="10" fill="#000000"/>
<rect x="170" y="210" width="10" height="10" fill="#000000"/>
<rect x="180" y="210" width="10" height="10" fill="#000000"/>
<rect x="190" y="210" width="10" height="10" fill="#000000"/>
<rect x="210" y="210" width="10" height="10" fill="#000000"/>
<rect x="230" y="210" width="10" height="10" fill="#000000"/>
<rect x="240" y="210" width="10" height="10" fill="#000000"/>
<rect x="260" y="210" width="10" height="10" fill="#000000"/>
<rect x="270" y="210" width="10" height="10" fill="#000000"/>
<rect x="20" y="220" width="10" height="10" fill="#000000"/>
<rect x="50" y="220" width="10" height="10" fill="#000000"/>
<rect x="60" y="220" width="10" height="10" fill="#000000"/>
<rect x="90" y="220" width="10" height="10" fill="#000000"/>
<rect x="140" y="220" width="10" height="10" fill="#000000"/>
<rect x="180" y="220" width="10" height="10" fill="#000000"/>
<rect x="190" y="220" width="10" height="10" fill="#000000"/>
<rect x="200" y="220" width="10" height="10" fill="#000000"/>
<rect x="220" y="220" width="10" height="10" fill="#000000"/>
<rect x="250" y="220" width="10" height="10" fill="#000000"/>
<rect x="20" y="230" width="10" height="10" fill="#000000"/>
<rect x="40" y="230" width="10" height="10" fill="#000000"/>
<rect x="60" y="230" width="10" height="10" fill="#000000"/>
<rect x="110" y="230" width="10" height="10" fill="#000000"/>
<rect x="120" y="230" width="10" height="10" fill="#000000"/>
<rect x="150" y="230" width="10" height="10" fill="#000000"/>
<rect x="170" y="230" width="10" height="10" fill="#000000"/>
<rect x="180" y="230" width="10" height="10" fill="#000000"/>
<rect x="190" y="230" width="10" height="10" fill="#000000"/>
<rect x="240" y="230" width="10" height="10" fill="#000000"/>
<rect x="260" y="230" width="10" height="10" fill="#000000"/>
<rect x="270" y="230" width="10" height="10" fill="#000000"/>
<rect x="20" y="240" width="10" height="10" fill="#000000"/>
<rect x="30" y="240" width="10" height="10" fill="#000000"/>
<rect x="50" y="240" width="10" height="10" fill="#000000"/>
<rect x="60" y="240" width="10" height="10" fill="#000000"/>
<rect x="70" y="240" width="10" height="10" fill="#000000"/>
<rect x="80" y="240" width="10" height="10" fill="#000000"/>
<rect x="90" y="240" width="10" height="10" fill="#000000"/>
<rect x="110" y="240" width="10" height="10" fill="#000000"/>
<rect x="130" y="240" width="10" height="10" fill="#000000"/>
<rect x="140" y="240" width="10" height="10" fill="#000000"/>
<rect x="150" y="240" width="10" height="10" fill="#000000"/>
<rect x="180" y="240" width="10" height="10" fill="#000000"/>
<rect x="210" y="240" width="10" height="10" fill="#000000"/>
<rect x="230" y="240" width="10" height="10" fill="#000000"/>
<rect x="250" y="240" width="10" height="10" fill="#000000"/>
<rect x="20" y="250" width="10" height="10" fill="#000000"/>
<rect x="30" y="250" width="10" height="10" fill="#000000"/>
<rect x="40" y="250" width="10" height="10" fill="#000000"/>
<rect x="60" y="250" width="10" height="10" fill="#000000"/>
<rect x="90" y="250" width="10" height="10" fill="#000000"/>
<rect x="110" y="250" width="10" height="10" fill="#000000"/>
<rect x="120" y="250" width="10" height="10" fill="#000000"/>
<rect x="170" y="250" width="10" height="10" fill="#000000"/>
<rect x="180" y="250" width="10" height="10" fill="#000000"/>
<rect x="190" y="250" width="10" height="10" fill="#000000"/>
<rect x="220" y="250" width="10" height="10" fill="#000000"/>
<rect x="230" y="250" width="10" height="10" fill="#000000"/>
<rect x="250" y="250" width="10" height="10" fill="#000000"/>
<rect x="260" y="250" width="10" height="10" fill="#000000"/>
<rect x="270" y="250" width="10" height="10" fill="#000000"/>
<rect x="20" y="260" width="10" height="10" fill="#000000"/>
<rect x="30" y="260" width="10" height="10" fill="#000000"/>
<rect x="50" y="260" width="10" height="10" fill="#000000"/>
<rect x="70" y="260" width="10" height="10" fill="#000000"/>
<rect x="90" y="260" width="10" height="10" fill="#000000"/>
<rect x="120" y="260" width="10" height="10" fill="#000000"/>
<rect x="130" y="260" width="10" height="10" fill="#000000"/>
<rect x="170" y="260" width="10" height="10" fill="#000000"/>
<rect x="200" y="260" width="10" height="10" fill="#000000"/>
<rect x="210" y="260" width="10" height="10" fill="#000000"/>
<rect x="220" y="260" width="10" height="10" fill="#000000"/>
<rect x="250" y="260" width="10" height="10" fill="#000000"/>
<rect x="260" y="260" width="10" height="10" fill="#000000"/>
<rect x="20" y="270" width="10" height="10" fill="#000000"/>
<rect x="30" y="270" width="10" height="10" fill="#000000"/>
<rect x="40" y="270" width="10" height="10" fill="#000000"/>
<rect x="50" y="270" width="10" height="10" fill="#000000"/>
<rect x="60" y="270" width="10" height="10" fill="#000000"/>
<rect x="70" y="270" width="10" height="10" fill="#000000"/>
<rect x="80" y="270" width="10" height="10" fill="#000000"/>
<rect x="90" y="270" width="10" height="10" fill="#000000"/>
<rect x="100" y="270" width="10" height="10" fill="#000000"/>
<rect x="110" y="270" width="10" height="10" fill="#000000"/>
<rect x="120" y="270" width="10" height="10" fill="#000000"/>
<rect x="130" y="270" width="10" height="10" fill="#000000"/>
<rect x="140" y="270" width="10" height="10" fill="#000000"/>
<rect x="150" y="270" width="10" height="10" fill="#000000"/>
<rect x="160" y="270" width="10" height="10" fill="#000000"/>
<rect x="170" y="270" width="10" height="10" fill="#000000"/>
<rect x="180" y="270" width="10" height="10" fill="#000000"/>
<rect x="190" y="270" width="10" height="10" fill="#000000"/>
<rect x="200" y="270" width="10" height="10" fill="#000000"/>
<rect x="210" y="270" width="10" height="10" fill="#000000"/>
<rect x="220" y="270" width="10" height="10" fill="#000000"/>
<rect x="230" y="270" width="10" height="10" fill="#000000"/>
<rect x="240" y="270" width="10" height="10" fill="#000000"/>
<rect x="250" y="270" width="10" height="10" fill="#000000"/>
<rect x="260" y="270" width="10" height="10" fill="#000000"/>
<rect x="270" y="270" width="10" height="10" fill="#000000"/>
</svg>