<?xml version="1.0" encoding="UTF-8"?>
<svg xmlns="http://www.w3.org/2000/svg" viewBox="0 0 178.0 122.0" width="178.0" height="122.0">
<rect width="178.0" height="122.0" fill="#FFFFFF"/>
<rect x="10.0" y="10" width="2.0" height="80" fill="#000000"/>
<rect x="14.0" y="10" width="5.0" height="80" fill="#000000"/>
<rect x="24.0" y="10" width="2.0" height="80" fill="#000000"/>
<rect x="31.0" y="10" width="2.0" height="80" fill="#000000"/>
<rect x="35.0" y="10" width="2.0" height="80" fill="#000000"/>
<rect x="39.0" y="10" width="2.0" height="80" fill="#000000"/>
<rect x="43.0" y="10" width="5.0" height="80" fill="#000000"/>
<rect x="53.0" y="10" width="2.0" height="80" fill="#000000"/>
<rect x="57.0" y="10" width="2.0" height="80" fill="#000000"/>
<rect x="61.0" y="10" width="2.0" height="80" fill="#000000"/>
<rect x="68.0" y="10" width="2.0" height="80" fill="#000000"/>
<rect x="72.0" y="10" width="5.0" height="80" fill="#000000"/>
<rect x="79.0" y="10" width="5.0" height="80" fill="#000000"/>
<rect x="89.0" y="10" width="2.0" height="80" fill="#000000"/>
<rect x="93.0" y="10" width="2.0" height="80" fill="#000000"/>
<rect x="97.0" y="10" width="2.0" height="80" fill="#000000"/>
<rect x="101.0" y="10" width="2.0" height="80" fill="#000000"/>
<rect x="105.0" y="10" width="5.0" height="80" fill="#000000"/>
<rect x="112.0" y="10" width="2.0" height="80" fill="#000000"/>
<rect x="119.0" y="10" width="2.0" height="80" fill="#000000"/>
<rect x="123.0" y="10" width="5.0" height="80" fill="#000000"/>
<rect x="130.0" y="10" width="2.0" height="80" fill="#000000"/>
<rect x="134.0" y="10" width="2.0" height="80" fill="#000000"/>
<rect x="141.0" y="10" width="2.0" height="80" fill="#000000"/>
<rect x="145.0" y="10" width="2.0" height="80" fill="#000000"/>
<rect x="149.0" y="10" width="5.0" height="80" fill="#000000"/>
<rect x="159.0" y="10" width="2.0" height="80" fill="#000000"/>
<rect x="166.0" y="10" width="2.0" height="80" fill="#000000"/>
<text x="89.0" y="108" text-anchor="middle" font-family="monospace" font-size="14" fill="#000000">A12345A</text>
</svg>