<?xml version="1.0" encoding="UTF-8"?>
<svg xmlns="http://www.w3.org/2000/svg" viewBox="0 0 156.0 122.0" width="156.0" height="122.0">
<rect width="156.0" height="122.0" fill="#FFFFFF"/>
<rect x="10.0" y="10" width="2.0" height="80" fill="#000000"/>
<rect x="14.0" y="10" width="2.0" height="80" fill="#000000"/>
<rect x="21.0" y="10" width="2.0" height="80" fill="#000000"/>
<rect x="28.0" y="10" width="5.0" height="80" fill="#000000"/>
<rect x="35.0" y="10" width="5.0" height="80" fill="#000000"/>
<rect x="42.0" y="10" width="2.0" height="80" fill="#000000"/>
<rect x="49.0" y="10" width="2.0" height="80" fill="#000000"/>
<rect x="53.0" y="10" width="2.0" height="80" fill="#000000"/>
<rect x="57.0" y="10" width="5.0" height="80" fill="#000000"/>
<rect x="64.0" y="10" width="2.0" height="80" fill="#000000"/>
<rect x="71.0" y="10" width="2.0" height="80" fill="#000000"/>
<rect x="75.0" y="10" width="2.0" height="80" fill="#000000"/>
<rect x="79.0" y="10" width="5.0" height="80" fill="#000000"/>
<rect x="86.0" y="10" width="2.0" height="80" fill="#000000"/>
<rect x="93.0" y="10" width="2.0" height="80" fill="#000000"/>
<rect x="97.0" y="10" width="2.0" height="80" fill="#000000"/>
<rect x="101.0" y="10" width="5.0" height="80" fill="#000000"/>
<rect x="108.0" y="10" width="2.0" height="80" fill="#000000"/>
<rect x="115.0" y="10" width="2.0" height="80" fill="#000000"/>
<rect x="119.0" y="10" width="2.0" height="80" fill="#000000"/>
<rect x="123.0" y="10" width="2.0" height="80" fill="#000000"/>
<rect x="127.0" y="10" width="2.0" height="80" fill="#000000"/>
<rect x="134.0" y="10" width="5.0" height="80" fill="#000000"/>
<rect x="144.0" y="10" width="2.0" height="80" fill="#000000"/>
<text x="78.0" y="108" text-anchor="middle" font-family="monospace" font-size="14" fill="#000000">C9999D</text>
</svg>